<mxfile host="app.diagrams.net" modified="2024-03-06T17:16:11.698Z" agent="Mozilla/5.0 (Windows NT 10.0; Win64; x64; rv:124.0) Gecko/20100101 Firefox/124.0" etag="WljVZIcacquxMWGTAN2-" version="23.1.8" type="github">
  <diagram name="Page-1" id="dENvC8b72AFp16AgQJbP">
    <mxGraphModel dx="1313" dy="663" grid="1" gridSize="10" guides="1" tooltips="1" connect="1" arrows="1" fold="1" page="1" pageScale="1" pageWidth="850" pageHeight="1100" math="0" shadow="0">
      <root>
        <mxCell id="0" />
        <mxCell id="1" parent="0" />
        <mxCell id="NP63c2qwMmVNeZMk7sTa-295" value="ACCOUNT" style="shape=table;startSize=25;container=1;collapsible=0;childLayout=tableLayout;fixedRows=1;rowLines=1;fontStyle=1;align=center;resizeLast=1;fontFamily=Comic Sans MS;" vertex="1" parent="1">
          <mxGeometry x="237" y="1452" width="139" height="135" as="geometry" />
        </mxCell>
        <mxCell id="NP63c2qwMmVNeZMk7sTa-296" style="shape=tableRow;horizontal=0;startSize=0;swimlaneHead=0;swimlaneBody=0;fillColor=none;collapsible=0;dropTarget=0;points=[[0,0.5],[1,0.5]];portConstraint=eastwest;top=0;left=0;right=0;bottom=0;fontFamily=Comic Sans MS;" vertex="1" parent="NP63c2qwMmVNeZMk7sTa-295">
          <mxGeometry y="25" width="139" height="22" as="geometry" />
        </mxCell>
        <mxCell id="NP63c2qwMmVNeZMk7sTa-297" value="string" style="shape=partialRectangle;connectable=0;fillColor=none;top=0;left=0;bottom=0;right=0;align=left;spacingLeft=2;overflow=hidden;fontSize=11;fontFamily=Comic Sans MS;" vertex="1" parent="NP63c2qwMmVNeZMk7sTa-296">
          <mxGeometry width="42" height="22" as="geometry">
            <mxRectangle width="42" height="22" as="alternateBounds" />
          </mxGeometry>
        </mxCell>
        <mxCell id="NP63c2qwMmVNeZMk7sTa-298" value="account_number" style="shape=partialRectangle;connectable=0;fillColor=none;top=0;left=0;bottom=0;right=0;align=left;spacingLeft=2;overflow=hidden;fontSize=11;fontFamily=Comic Sans MS;" vertex="1" parent="NP63c2qwMmVNeZMk7sTa-296">
          <mxGeometry x="42" width="97" height="22" as="geometry">
            <mxRectangle width="97" height="22" as="alternateBounds" />
          </mxGeometry>
        </mxCell>
        <mxCell id="NP63c2qwMmVNeZMk7sTa-299" style="shape=tableRow;horizontal=0;startSize=0;swimlaneHead=0;swimlaneBody=0;fillColor=none;collapsible=0;dropTarget=0;points=[[0,0.5],[1,0.5]];portConstraint=eastwest;top=0;left=0;right=0;bottom=0;fontFamily=Comic Sans MS;" vertex="1" parent="NP63c2qwMmVNeZMk7sTa-295">
          <mxGeometry y="47" width="139" height="22" as="geometry" />
        </mxCell>
        <mxCell id="NP63c2qwMmVNeZMk7sTa-300" value="string" style="shape=partialRectangle;connectable=0;fillColor=none;top=0;left=0;bottom=0;right=0;align=left;spacingLeft=2;overflow=hidden;fontSize=11;fontFamily=Comic Sans MS;" vertex="1" parent="NP63c2qwMmVNeZMk7sTa-299">
          <mxGeometry width="42" height="22" as="geometry">
            <mxRectangle width="42" height="22" as="alternateBounds" />
          </mxGeometry>
        </mxCell>
        <mxCell id="NP63c2qwMmVNeZMk7sTa-301" value="type" style="shape=partialRectangle;connectable=0;fillColor=none;top=0;left=0;bottom=0;right=0;align=left;spacingLeft=2;overflow=hidden;fontSize=11;fontFamily=Comic Sans MS;" vertex="1" parent="NP63c2qwMmVNeZMk7sTa-299">
          <mxGeometry x="42" width="97" height="22" as="geometry">
            <mxRectangle width="97" height="22" as="alternateBounds" />
          </mxGeometry>
        </mxCell>
        <mxCell id="NP63c2qwMmVNeZMk7sTa-302" style="shape=tableRow;horizontal=0;startSize=0;swimlaneHead=0;swimlaneBody=0;fillColor=none;collapsible=0;dropTarget=0;points=[[0,0.5],[1,0.5]];portConstraint=eastwest;top=0;left=0;right=0;bottom=0;fontFamily=Comic Sans MS;" vertex="1" parent="NP63c2qwMmVNeZMk7sTa-295">
          <mxGeometry y="69" width="139" height="22" as="geometry" />
        </mxCell>
        <mxCell id="NP63c2qwMmVNeZMk7sTa-303" value="decimal" style="shape=partialRectangle;connectable=0;fillColor=none;top=0;left=0;bottom=0;right=0;align=left;spacingLeft=2;overflow=hidden;fontSize=11;fontFamily=Comic Sans MS;" vertex="1" parent="NP63c2qwMmVNeZMk7sTa-302">
          <mxGeometry width="42" height="22" as="geometry">
            <mxRectangle width="42" height="22" as="alternateBounds" />
          </mxGeometry>
        </mxCell>
        <mxCell id="NP63c2qwMmVNeZMk7sTa-304" value="balance" style="shape=partialRectangle;connectable=0;fillColor=none;top=0;left=0;bottom=0;right=0;align=left;spacingLeft=2;overflow=hidden;fontSize=11;fontFamily=Comic Sans MS;" vertex="1" parent="NP63c2qwMmVNeZMk7sTa-302">
          <mxGeometry x="42" width="97" height="22" as="geometry">
            <mxRectangle width="97" height="22" as="alternateBounds" />
          </mxGeometry>
        </mxCell>
        <mxCell id="NP63c2qwMmVNeZMk7sTa-305" style="shape=tableRow;horizontal=0;startSize=0;swimlaneHead=0;swimlaneBody=0;fillColor=none;collapsible=0;dropTarget=0;points=[[0,0.5],[1,0.5]];portConstraint=eastwest;top=0;left=0;right=0;bottom=0;fontFamily=Comic Sans MS;" vertex="1" parent="NP63c2qwMmVNeZMk7sTa-295">
          <mxGeometry y="91" width="139" height="22" as="geometry" />
        </mxCell>
        <mxCell id="NP63c2qwMmVNeZMk7sTa-306" value="string" style="shape=partialRectangle;connectable=0;fillColor=none;top=0;left=0;bottom=0;right=0;align=left;spacingLeft=2;overflow=hidden;fontSize=11;fontFamily=Comic Sans MS;" vertex="1" parent="NP63c2qwMmVNeZMk7sTa-305">
          <mxGeometry width="42" height="22" as="geometry">
            <mxRectangle width="42" height="22" as="alternateBounds" />
          </mxGeometry>
        </mxCell>
        <mxCell id="NP63c2qwMmVNeZMk7sTa-307" value="status" style="shape=partialRectangle;connectable=0;fillColor=none;top=0;left=0;bottom=0;right=0;align=left;spacingLeft=2;overflow=hidden;fontSize=11;fontFamily=Comic Sans MS;" vertex="1" parent="NP63c2qwMmVNeZMk7sTa-305">
          <mxGeometry x="42" width="97" height="22" as="geometry">
            <mxRectangle width="97" height="22" as="alternateBounds" />
          </mxGeometry>
        </mxCell>
        <mxCell id="NP63c2qwMmVNeZMk7sTa-308" style="shape=tableRow;horizontal=0;startSize=0;swimlaneHead=0;swimlaneBody=0;fillColor=none;collapsible=0;dropTarget=0;points=[[0,0.5],[1,0.5]];portConstraint=eastwest;top=0;left=0;right=0;bottom=0;fontFamily=Comic Sans MS;" vertex="1" parent="NP63c2qwMmVNeZMk7sTa-295">
          <mxGeometry y="113" width="139" height="22" as="geometry" />
        </mxCell>
        <mxCell id="NP63c2qwMmVNeZMk7sTa-309" value="date" style="shape=partialRectangle;connectable=0;fillColor=none;top=0;left=0;bottom=0;right=0;align=left;spacingLeft=2;overflow=hidden;fontSize=11;fontFamily=Comic Sans MS;" vertex="1" parent="NP63c2qwMmVNeZMk7sTa-308">
          <mxGeometry width="42" height="22" as="geometry">
            <mxRectangle width="42" height="22" as="alternateBounds" />
          </mxGeometry>
        </mxCell>
        <mxCell id="NP63c2qwMmVNeZMk7sTa-310" value="date_of_opening" style="shape=partialRectangle;connectable=0;fillColor=none;top=0;left=0;bottom=0;right=0;align=left;spacingLeft=2;overflow=hidden;fontSize=11;fontFamily=Comic Sans MS;" vertex="1" parent="NP63c2qwMmVNeZMk7sTa-308">
          <mxGeometry x="42" width="97" height="22" as="geometry">
            <mxRectangle width="97" height="22" as="alternateBounds" />
          </mxGeometry>
        </mxCell>
        <mxCell id="NP63c2qwMmVNeZMk7sTa-311" value="CUSTOMER" style="shape=table;startSize=25;container=1;collapsible=0;childLayout=tableLayout;fixedRows=1;rowLines=1;fontStyle=1;align=center;resizeLast=1;fontFamily=Comic Sans MS;" vertex="1" parent="1">
          <mxGeometry x="579" y="1389" width="121" height="179" as="geometry" />
        </mxCell>
        <mxCell id="NP63c2qwMmVNeZMk7sTa-312" style="shape=tableRow;horizontal=0;startSize=0;swimlaneHead=0;swimlaneBody=0;fillColor=none;collapsible=0;dropTarget=0;points=[[0,0.5],[1,0.5]];portConstraint=eastwest;top=0;left=0;right=0;bottom=0;fontFamily=Comic Sans MS;" vertex="1" parent="NP63c2qwMmVNeZMk7sTa-311">
          <mxGeometry y="25" width="121" height="22" as="geometry" />
        </mxCell>
        <mxCell id="NP63c2qwMmVNeZMk7sTa-313" value="string" style="shape=partialRectangle;connectable=0;fillColor=none;top=0;left=0;bottom=0;right=0;align=left;spacingLeft=2;overflow=hidden;fontSize=11;fontFamily=Comic Sans MS;" vertex="1" parent="NP63c2qwMmVNeZMk7sTa-312">
          <mxGeometry width="36" height="22" as="geometry">
            <mxRectangle width="36" height="22" as="alternateBounds" />
          </mxGeometry>
        </mxCell>
        <mxCell id="NP63c2qwMmVNeZMk7sTa-314" value="name" style="shape=partialRectangle;connectable=0;fillColor=none;top=0;left=0;bottom=0;right=0;align=left;spacingLeft=2;overflow=hidden;fontSize=11;fontFamily=Comic Sans MS;" vertex="1" parent="NP63c2qwMmVNeZMk7sTa-312">
          <mxGeometry x="36" width="85" height="22" as="geometry">
            <mxRectangle width="85" height="22" as="alternateBounds" />
          </mxGeometry>
        </mxCell>
        <mxCell id="NP63c2qwMmVNeZMk7sTa-315" style="shape=tableRow;horizontal=0;startSize=0;swimlaneHead=0;swimlaneBody=0;fillColor=none;collapsible=0;dropTarget=0;points=[[0,0.5],[1,0.5]];portConstraint=eastwest;top=0;left=0;right=0;bottom=0;fontFamily=Comic Sans MS;" vertex="1" parent="NP63c2qwMmVNeZMk7sTa-311">
          <mxGeometry y="47" width="121" height="22" as="geometry" />
        </mxCell>
        <mxCell id="NP63c2qwMmVNeZMk7sTa-316" value="string" style="shape=partialRectangle;connectable=0;fillColor=none;top=0;left=0;bottom=0;right=0;align=left;spacingLeft=2;overflow=hidden;fontSize=11;fontFamily=Comic Sans MS;" vertex="1" parent="NP63c2qwMmVNeZMk7sTa-315">
          <mxGeometry width="36" height="22" as="geometry">
            <mxRectangle width="36" height="22" as="alternateBounds" />
          </mxGeometry>
        </mxCell>
        <mxCell id="NP63c2qwMmVNeZMk7sTa-317" value="national_code" style="shape=partialRectangle;connectable=0;fillColor=none;top=0;left=0;bottom=0;right=0;align=left;spacingLeft=2;overflow=hidden;fontSize=11;fontFamily=Comic Sans MS;" vertex="1" parent="NP63c2qwMmVNeZMk7sTa-315">
          <mxGeometry x="36" width="85" height="22" as="geometry">
            <mxRectangle width="85" height="22" as="alternateBounds" />
          </mxGeometry>
        </mxCell>
        <mxCell id="NP63c2qwMmVNeZMk7sTa-318" style="shape=tableRow;horizontal=0;startSize=0;swimlaneHead=0;swimlaneBody=0;fillColor=none;collapsible=0;dropTarget=0;points=[[0,0.5],[1,0.5]];portConstraint=eastwest;top=0;left=0;right=0;bottom=0;fontFamily=Comic Sans MS;" vertex="1" parent="NP63c2qwMmVNeZMk7sTa-311">
          <mxGeometry y="69" width="121" height="22" as="geometry" />
        </mxCell>
        <mxCell id="NP63c2qwMmVNeZMk7sTa-319" value="string" style="shape=partialRectangle;connectable=0;fillColor=none;top=0;left=0;bottom=0;right=0;align=left;spacingLeft=2;overflow=hidden;fontSize=11;fontFamily=Comic Sans MS;" vertex="1" parent="NP63c2qwMmVNeZMk7sTa-318">
          <mxGeometry width="36" height="22" as="geometry">
            <mxRectangle width="36" height="22" as="alternateBounds" />
          </mxGeometry>
        </mxCell>
        <mxCell id="NP63c2qwMmVNeZMk7sTa-320" value="gender" style="shape=partialRectangle;connectable=0;fillColor=none;top=0;left=0;bottom=0;right=0;align=left;spacingLeft=2;overflow=hidden;fontSize=11;fontFamily=Comic Sans MS;" vertex="1" parent="NP63c2qwMmVNeZMk7sTa-318">
          <mxGeometry x="36" width="85" height="22" as="geometry">
            <mxRectangle width="85" height="22" as="alternateBounds" />
          </mxGeometry>
        </mxCell>
        <mxCell id="NP63c2qwMmVNeZMk7sTa-321" style="shape=tableRow;horizontal=0;startSize=0;swimlaneHead=0;swimlaneBody=0;fillColor=none;collapsible=0;dropTarget=0;points=[[0,0.5],[1,0.5]];portConstraint=eastwest;top=0;left=0;right=0;bottom=0;fontFamily=Comic Sans MS;" vertex="1" parent="NP63c2qwMmVNeZMk7sTa-311">
          <mxGeometry y="91" width="121" height="22" as="geometry" />
        </mxCell>
        <mxCell id="NP63c2qwMmVNeZMk7sTa-322" value="string" style="shape=partialRectangle;connectable=0;fillColor=none;top=0;left=0;bottom=0;right=0;align=left;spacingLeft=2;overflow=hidden;fontSize=11;fontFamily=Comic Sans MS;" vertex="1" parent="NP63c2qwMmVNeZMk7sTa-321">
          <mxGeometry width="36" height="22" as="geometry">
            <mxRectangle width="36" height="22" as="alternateBounds" />
          </mxGeometry>
        </mxCell>
        <mxCell id="NP63c2qwMmVNeZMk7sTa-323" value="email_address" style="shape=partialRectangle;connectable=0;fillColor=none;top=0;left=0;bottom=0;right=0;align=left;spacingLeft=2;overflow=hidden;fontSize=11;fontFamily=Comic Sans MS;" vertex="1" parent="NP63c2qwMmVNeZMk7sTa-321">
          <mxGeometry x="36" width="85" height="22" as="geometry">
            <mxRectangle width="85" height="22" as="alternateBounds" />
          </mxGeometry>
        </mxCell>
        <mxCell id="NP63c2qwMmVNeZMk7sTa-324" style="shape=tableRow;horizontal=0;startSize=0;swimlaneHead=0;swimlaneBody=0;fillColor=none;collapsible=0;dropTarget=0;points=[[0,0.5],[1,0.5]];portConstraint=eastwest;top=0;left=0;right=0;bottom=0;fontFamily=Comic Sans MS;" vertex="1" parent="NP63c2qwMmVNeZMk7sTa-311">
          <mxGeometry y="113" width="121" height="22" as="geometry" />
        </mxCell>
        <mxCell id="NP63c2qwMmVNeZMk7sTa-325" value="string" style="shape=partialRectangle;connectable=0;fillColor=none;top=0;left=0;bottom=0;right=0;align=left;spacingLeft=2;overflow=hidden;fontSize=11;fontFamily=Comic Sans MS;" vertex="1" parent="NP63c2qwMmVNeZMk7sTa-324">
          <mxGeometry width="36" height="22" as="geometry">
            <mxRectangle width="36" height="22" as="alternateBounds" />
          </mxGeometry>
        </mxCell>
        <mxCell id="NP63c2qwMmVNeZMk7sTa-326" value="phone_number" style="shape=partialRectangle;connectable=0;fillColor=none;top=0;left=0;bottom=0;right=0;align=left;spacingLeft=2;overflow=hidden;fontSize=11;fontFamily=Comic Sans MS;" vertex="1" parent="NP63c2qwMmVNeZMk7sTa-324">
          <mxGeometry x="36" width="85" height="22" as="geometry">
            <mxRectangle width="85" height="22" as="alternateBounds" />
          </mxGeometry>
        </mxCell>
        <mxCell id="NP63c2qwMmVNeZMk7sTa-327" style="shape=tableRow;horizontal=0;startSize=0;swimlaneHead=0;swimlaneBody=0;fillColor=none;collapsible=0;dropTarget=0;points=[[0,0.5],[1,0.5]];portConstraint=eastwest;top=0;left=0;right=0;bottom=0;fontFamily=Comic Sans MS;" vertex="1" parent="NP63c2qwMmVNeZMk7sTa-311">
          <mxGeometry y="135" width="121" height="22" as="geometry" />
        </mxCell>
        <mxCell id="NP63c2qwMmVNeZMk7sTa-328" value="date" style="shape=partialRectangle;connectable=0;fillColor=none;top=0;left=0;bottom=0;right=0;align=left;spacingLeft=2;overflow=hidden;fontSize=11;fontFamily=Comic Sans MS;" vertex="1" parent="NP63c2qwMmVNeZMk7sTa-327">
          <mxGeometry width="36" height="22" as="geometry">
            <mxRectangle width="36" height="22" as="alternateBounds" />
          </mxGeometry>
        </mxCell>
        <mxCell id="NP63c2qwMmVNeZMk7sTa-329" value="birthday" style="shape=partialRectangle;connectable=0;fillColor=none;top=0;left=0;bottom=0;right=0;align=left;spacingLeft=2;overflow=hidden;fontSize=11;fontFamily=Comic Sans MS;" vertex="1" parent="NP63c2qwMmVNeZMk7sTa-327">
          <mxGeometry x="36" width="85" height="22" as="geometry">
            <mxRectangle width="85" height="22" as="alternateBounds" />
          </mxGeometry>
        </mxCell>
        <mxCell id="NP63c2qwMmVNeZMk7sTa-330" style="shape=tableRow;horizontal=0;startSize=0;swimlaneHead=0;swimlaneBody=0;fillColor=none;collapsible=0;dropTarget=0;points=[[0,0.5],[1,0.5]];portConstraint=eastwest;top=0;left=0;right=0;bottom=0;fontFamily=Comic Sans MS;" vertex="1" parent="NP63c2qwMmVNeZMk7sTa-311">
          <mxGeometry y="157" width="121" height="22" as="geometry" />
        </mxCell>
        <mxCell id="NP63c2qwMmVNeZMk7sTa-331" value="string" style="shape=partialRectangle;connectable=0;fillColor=none;top=0;left=0;bottom=0;right=0;align=left;spacingLeft=2;overflow=hidden;fontSize=11;fontFamily=Comic Sans MS;" vertex="1" parent="NP63c2qwMmVNeZMk7sTa-330">
          <mxGeometry width="36" height="22" as="geometry">
            <mxRectangle width="36" height="22" as="alternateBounds" />
          </mxGeometry>
        </mxCell>
        <mxCell id="NP63c2qwMmVNeZMk7sTa-332" value="address" style="shape=partialRectangle;connectable=0;fillColor=none;top=0;left=0;bottom=0;right=0;align=left;spacingLeft=2;overflow=hidden;fontSize=11;fontFamily=Comic Sans MS;" vertex="1" parent="NP63c2qwMmVNeZMk7sTa-330">
          <mxGeometry x="36" width="85" height="22" as="geometry">
            <mxRectangle width="85" height="22" as="alternateBounds" />
          </mxGeometry>
        </mxCell>
        <mxCell id="NP63c2qwMmVNeZMk7sTa-333" value="LOAN" style="shape=table;startSize=25;container=1;collapsible=0;childLayout=tableLayout;fixedRows=1;rowLines=1;fontStyle=1;align=center;resizeLast=1;fontFamily=Comic Sans MS;" vertex="1" parent="1">
          <mxGeometry x="220" y="1708" width="174" height="135" as="geometry" />
        </mxCell>
        <mxCell id="NP63c2qwMmVNeZMk7sTa-334" style="shape=tableRow;horizontal=0;startSize=0;swimlaneHead=0;swimlaneBody=0;fillColor=none;collapsible=0;dropTarget=0;points=[[0,0.5],[1,0.5]];portConstraint=eastwest;top=0;left=0;right=0;bottom=0;fontFamily=Comic Sans MS;" vertex="1" parent="NP63c2qwMmVNeZMk7sTa-333">
          <mxGeometry y="25" width="174" height="22" as="geometry" />
        </mxCell>
        <mxCell id="NP63c2qwMmVNeZMk7sTa-335" value="decimal" style="shape=partialRectangle;connectable=0;fillColor=none;top=0;left=0;bottom=0;right=0;align=left;spacingLeft=2;overflow=hidden;fontSize=11;fontFamily=Comic Sans MS;" vertex="1" parent="NP63c2qwMmVNeZMk7sTa-334">
          <mxGeometry width="42" height="22" as="geometry">
            <mxRectangle width="42" height="22" as="alternateBounds" />
          </mxGeometry>
        </mxCell>
        <mxCell id="NP63c2qwMmVNeZMk7sTa-336" value="amount" style="shape=partialRectangle;connectable=0;fillColor=none;top=0;left=0;bottom=0;right=0;align=left;spacingLeft=2;overflow=hidden;fontSize=11;fontFamily=Comic Sans MS;" vertex="1" parent="NP63c2qwMmVNeZMk7sTa-334">
          <mxGeometry x="42" width="132" height="22" as="geometry">
            <mxRectangle width="132" height="22" as="alternateBounds" />
          </mxGeometry>
        </mxCell>
        <mxCell id="NP63c2qwMmVNeZMk7sTa-337" style="shape=tableRow;horizontal=0;startSize=0;swimlaneHead=0;swimlaneBody=0;fillColor=none;collapsible=0;dropTarget=0;points=[[0,0.5],[1,0.5]];portConstraint=eastwest;top=0;left=0;right=0;bottom=0;fontFamily=Comic Sans MS;" vertex="1" parent="NP63c2qwMmVNeZMk7sTa-333">
          <mxGeometry y="47" width="174" height="22" as="geometry" />
        </mxCell>
        <mxCell id="NP63c2qwMmVNeZMk7sTa-338" value="decimal" style="shape=partialRectangle;connectable=0;fillColor=none;top=0;left=0;bottom=0;right=0;align=left;spacingLeft=2;overflow=hidden;fontSize=11;fontFamily=Comic Sans MS;" vertex="1" parent="NP63c2qwMmVNeZMk7sTa-337">
          <mxGeometry width="42" height="22" as="geometry">
            <mxRectangle width="42" height="22" as="alternateBounds" />
          </mxGeometry>
        </mxCell>
        <mxCell id="NP63c2qwMmVNeZMk7sTa-339" value="profit" style="shape=partialRectangle;connectable=0;fillColor=none;top=0;left=0;bottom=0;right=0;align=left;spacingLeft=2;overflow=hidden;fontSize=11;fontFamily=Comic Sans MS;" vertex="1" parent="NP63c2qwMmVNeZMk7sTa-337">
          <mxGeometry x="42" width="132" height="22" as="geometry">
            <mxRectangle width="132" height="22" as="alternateBounds" />
          </mxGeometry>
        </mxCell>
        <mxCell id="NP63c2qwMmVNeZMk7sTa-340" style="shape=tableRow;horizontal=0;startSize=0;swimlaneHead=0;swimlaneBody=0;fillColor=none;collapsible=0;dropTarget=0;points=[[0,0.5],[1,0.5]];portConstraint=eastwest;top=0;left=0;right=0;bottom=0;fontFamily=Comic Sans MS;" vertex="1" parent="NP63c2qwMmVNeZMk7sTa-333">
          <mxGeometry y="69" width="174" height="22" as="geometry" />
        </mxCell>
        <mxCell id="NP63c2qwMmVNeZMk7sTa-341" value="string" style="shape=partialRectangle;connectable=0;fillColor=none;top=0;left=0;bottom=0;right=0;align=left;spacingLeft=2;overflow=hidden;fontSize=11;fontFamily=Comic Sans MS;" vertex="1" parent="NP63c2qwMmVNeZMk7sTa-340">
          <mxGeometry width="42" height="22" as="geometry">
            <mxRectangle width="42" height="22" as="alternateBounds" />
          </mxGeometry>
        </mxCell>
        <mxCell id="NP63c2qwMmVNeZMk7sTa-342" value="description" style="shape=partialRectangle;connectable=0;fillColor=none;top=0;left=0;bottom=0;right=0;align=left;spacingLeft=2;overflow=hidden;fontSize=11;fontFamily=Comic Sans MS;" vertex="1" parent="NP63c2qwMmVNeZMk7sTa-340">
          <mxGeometry x="42" width="132" height="22" as="geometry">
            <mxRectangle width="132" height="22" as="alternateBounds" />
          </mxGeometry>
        </mxCell>
        <mxCell id="NP63c2qwMmVNeZMk7sTa-343" style="shape=tableRow;horizontal=0;startSize=0;swimlaneHead=0;swimlaneBody=0;fillColor=none;collapsible=0;dropTarget=0;points=[[0,0.5],[1,0.5]];portConstraint=eastwest;top=0;left=0;right=0;bottom=0;fontFamily=Comic Sans MS;" vertex="1" parent="NP63c2qwMmVNeZMk7sTa-333">
          <mxGeometry y="91" width="174" height="22" as="geometry" />
        </mxCell>
        <mxCell id="NP63c2qwMmVNeZMk7sTa-344" value="int" style="shape=partialRectangle;connectable=0;fillColor=none;top=0;left=0;bottom=0;right=0;align=left;spacingLeft=2;overflow=hidden;fontSize=11;fontFamily=Comic Sans MS;" vertex="1" parent="NP63c2qwMmVNeZMk7sTa-343">
          <mxGeometry width="42" height="22" as="geometry">
            <mxRectangle width="42" height="22" as="alternateBounds" />
          </mxGeometry>
        </mxCell>
        <mxCell id="NP63c2qwMmVNeZMk7sTa-345" value="number_of_installments" style="shape=partialRectangle;connectable=0;fillColor=none;top=0;left=0;bottom=0;right=0;align=left;spacingLeft=2;overflow=hidden;fontSize=11;fontFamily=Comic Sans MS;" vertex="1" parent="NP63c2qwMmVNeZMk7sTa-343">
          <mxGeometry x="42" width="132" height="22" as="geometry">
            <mxRectangle width="132" height="22" as="alternateBounds" />
          </mxGeometry>
        </mxCell>
        <mxCell id="NP63c2qwMmVNeZMk7sTa-346" style="shape=tableRow;horizontal=0;startSize=0;swimlaneHead=0;swimlaneBody=0;fillColor=none;collapsible=0;dropTarget=0;points=[[0,0.5],[1,0.5]];portConstraint=eastwest;top=0;left=0;right=0;bottom=0;fontFamily=Comic Sans MS;" vertex="1" parent="NP63c2qwMmVNeZMk7sTa-333">
          <mxGeometry y="113" width="174" height="22" as="geometry" />
        </mxCell>
        <mxCell id="NP63c2qwMmVNeZMk7sTa-347" value="string" style="shape=partialRectangle;connectable=0;fillColor=none;top=0;left=0;bottom=0;right=0;align=left;spacingLeft=2;overflow=hidden;fontSize=11;fontFamily=Comic Sans MS;" vertex="1" parent="NP63c2qwMmVNeZMk7sTa-346">
          <mxGeometry width="42" height="22" as="geometry">
            <mxRectangle width="42" height="22" as="alternateBounds" />
          </mxGeometry>
        </mxCell>
        <mxCell id="NP63c2qwMmVNeZMk7sTa-348" value="guarantor_details" style="shape=partialRectangle;connectable=0;fillColor=none;top=0;left=0;bottom=0;right=0;align=left;spacingLeft=2;overflow=hidden;fontSize=11;fontFamily=Comic Sans MS;" vertex="1" parent="NP63c2qwMmVNeZMk7sTa-346">
          <mxGeometry x="42" width="132" height="22" as="geometry">
            <mxRectangle width="132" height="22" as="alternateBounds" />
          </mxGeometry>
        </mxCell>
        <mxCell id="NP63c2qwMmVNeZMk7sTa-349" value="has" style="curved=1;startArrow=ERmandOne;startSize=10;;endArrow=ERoneToMany;endSize=10;;exitX=0.49012346620912906;exitY=0.9970149709217584;entryX=0.5;entryY=0;rounded=0;fontFamily=Comic Sans MS;entryDx=0;entryDy=0;" edge="1" parent="1" target="NP63c2qwMmVNeZMk7sTa-377">
          <mxGeometry relative="1" as="geometry">
            <Array as="points" />
            <mxPoint x="466.44039207294526" y="530" as="sourcePoint" />
            <mxPoint x="466.4476276655906" y="578" as="targetPoint" />
          </mxGeometry>
        </mxCell>
        <mxCell id="NP63c2qwMmVNeZMk7sTa-350" value="employs" style="startArrow=ERmandOne;startSize=10;;endArrow=ERoneToMany;endSize=10;;exitX=0.3028050031604091;exitY=0.9940299418435168;entryX=0.5;entryY=0;rounded=0;fontFamily=Comic Sans MS;entryDx=0;entryDy=0;" edge="1" parent="1" target="NP63c2qwMmVNeZMk7sTa-393">
          <mxGeometry x="0.0107" y="-1" relative="1" as="geometry">
            <Array as="points">
              <mxPoint x="370" y="690" />
            </Array>
            <mxPoint x="466.05064226223953" y="640" as="sourcePoint" />
            <mxPoint x="440.39977629031307" y="760" as="targetPoint" />
            <mxPoint as="offset" />
          </mxGeometry>
        </mxCell>
        <mxCell id="NP63c2qwMmVNeZMk7sTa-351" value="holds" style="curved=1;startArrow=ERmandOne;startSize=10;;endArrow=ERoneToMany;endSize=10;;exitX=0.5;exitY=1;entryX=0.11916740014217556;entryY=0.00149262841068097;rounded=0;fontFamily=Comic Sans MS;exitDx=0;exitDy=0;" edge="1" parent="1" source="NP63c2qwMmVNeZMk7sTa-393" target="NP63c2qwMmVNeZMk7sTa-295">
          <mxGeometry relative="1" as="geometry">
            <Array as="points">
              <mxPoint x="257" y="1041" />
            </Array>
            <mxPoint x="196.36781661000714" y="971" as="sourcePoint" />
          </mxGeometry>
        </mxCell>
        <mxCell id="NP63c2qwMmVNeZMk7sTa-352" value="owns" style="curved=1;startArrow=ERmandOne;startSize=10;;endArrow=ERoneToMany;endSize=10;;exitX=0.5008264809600578;exitY=0.9955056865563553;entryX=0.6738374485093296;entryY=0.00149262841068097;rounded=0;fontFamily=Comic Sans MS;" edge="1" parent="1" source="NP63c2qwMmVNeZMk7sTa-311" target="NP63c2qwMmVNeZMk7sTa-295">
          <mxGeometry relative="1" as="geometry">
            <Array as="points">
              <mxPoint x="357" y="1380" />
            </Array>
          </mxGeometry>
        </mxCell>
        <mxCell id="NP63c2qwMmVNeZMk7sTa-353" value="grants" style="curved=1;startArrow=ERmandOne;startSize=10;;endArrow=ERoneToMany;endSize=10;;exitX=0.5007194546486834;exitY=0.9985075993324394;entryX=0.4977011735411896;entryY=-0.0014924006675606342;rounded=0;fontFamily=Comic Sans MS;" edge="1" parent="1" source="NP63c2qwMmVNeZMk7sTa-295" target="NP63c2qwMmVNeZMk7sTa-333">
          <mxGeometry relative="1" as="geometry">
            <Array as="points" />
          </mxGeometry>
        </mxCell>
        <mxCell id="NP63c2qwMmVNeZMk7sTa-354" value="Bank" style="whiteSpace=wrap;html=1;align=center;fontFamily=Comic Sans MS;" vertex="1" parent="1">
          <mxGeometry x="417" y="490" width="100" height="40" as="geometry" />
        </mxCell>
        <mxCell id="NP63c2qwMmVNeZMk7sTa-375" style="rounded=0;orthogonalLoop=1;jettySize=auto;html=1;exitX=0.5;exitY=1;exitDx=0;exitDy=0;entryX=0.25;entryY=0;entryDx=0;entryDy=0;endArrow=none;endFill=0;" edge="1" parent="1" source="NP63c2qwMmVNeZMk7sTa-356" target="NP63c2qwMmVNeZMk7sTa-354">
          <mxGeometry relative="1" as="geometry" />
        </mxCell>
        <mxCell id="NP63c2qwMmVNeZMk7sTa-356" value="name" style="ellipse;whiteSpace=wrap;html=1;align=center;fontFamily=Comic Sans MS;" vertex="1" parent="1">
          <mxGeometry x="365" y="420" width="60" height="30" as="geometry" />
        </mxCell>
        <mxCell id="NP63c2qwMmVNeZMk7sTa-374" style="edgeStyle=orthogonalEdgeStyle;rounded=0;orthogonalLoop=1;jettySize=auto;html=1;exitX=0.5;exitY=1;exitDx=0;exitDy=0;entryX=0.5;entryY=0;entryDx=0;entryDy=0;endArrow=none;endFill=0;" edge="1" parent="1" source="NP63c2qwMmVNeZMk7sTa-357" target="NP63c2qwMmVNeZMk7sTa-354">
          <mxGeometry relative="1" as="geometry" />
        </mxCell>
        <mxCell id="NP63c2qwMmVNeZMk7sTa-357" value="number" style="ellipse;whiteSpace=wrap;html=1;align=center;fontFamily=Comic Sans MS;" vertex="1" parent="1">
          <mxGeometry x="437" y="410" width="60" height="30" as="geometry" />
        </mxCell>
        <mxCell id="NP63c2qwMmVNeZMk7sTa-372" style="rounded=0;orthogonalLoop=1;jettySize=auto;html=1;exitX=0;exitY=0.5;exitDx=0;exitDy=0;entryX=1;entryY=0.5;entryDx=0;entryDy=0;endArrow=none;endFill=0;" edge="1" parent="1" source="NP63c2qwMmVNeZMk7sTa-358" target="NP63c2qwMmVNeZMk7sTa-354">
          <mxGeometry relative="1" as="geometry" />
        </mxCell>
        <mxCell id="NP63c2qwMmVNeZMk7sTa-358" value="&lt;font style=&quot;font-size: 6px;&quot;&gt;date of &lt;br style=&quot;font-size: 6px;&quot;&gt;&lt;/font&gt;&lt;div style=&quot;font-size: 6px;&quot;&gt;&lt;font style=&quot;font-size: 6px;&quot;&gt;establishment&lt;/font&gt;&lt;/div&gt;" style="ellipse;align=center;labelBorderColor=none;labelBackgroundColor=none;fontFamily=Comic Sans MS;verticalAlign=middle;horizontal=1;textDirection=ltr;comic=0;treeMoving=0;html=1;fontSize=6;" vertex="1" parent="1">
          <mxGeometry x="550" y="450" width="50" height="30" as="geometry" />
        </mxCell>
        <mxCell id="NP63c2qwMmVNeZMk7sTa-373" style="rounded=0;orthogonalLoop=1;jettySize=auto;html=1;exitX=0;exitY=1;exitDx=0;exitDy=0;endArrow=none;endFill=0;" edge="1" parent="1" source="NP63c2qwMmVNeZMk7sTa-359" target="NP63c2qwMmVNeZMk7sTa-354">
          <mxGeometry relative="1" as="geometry" />
        </mxCell>
        <mxCell id="NP63c2qwMmVNeZMk7sTa-359" value="website" style="ellipse;whiteSpace=wrap;html=1;align=center;fontFamily=Comic Sans MS;" vertex="1" parent="1">
          <mxGeometry x="500" y="420" width="60" height="30" as="geometry" />
        </mxCell>
        <mxCell id="NP63c2qwMmVNeZMk7sTa-376" style="rounded=0;orthogonalLoop=1;jettySize=auto;html=1;exitX=1;exitY=1;exitDx=0;exitDy=0;entryX=0;entryY=0.25;entryDx=0;entryDy=0;endArrow=none;endFill=0;" edge="1" parent="1" source="NP63c2qwMmVNeZMk7sTa-362" target="NP63c2qwMmVNeZMk7sTa-354">
          <mxGeometry relative="1" as="geometry" />
        </mxCell>
        <mxCell id="NP63c2qwMmVNeZMk7sTa-362" value="code" style="ellipse;whiteSpace=wrap;html=1;align=center;fontStyle=4;fontFamily=Comic Sans MS;" vertex="1" parent="1">
          <mxGeometry x="320" y="450" width="60" height="30" as="geometry" />
        </mxCell>
        <mxCell id="NP63c2qwMmVNeZMk7sTa-377" value="Branch" style="whiteSpace=wrap;html=1;align=center;" vertex="1" parent="1">
          <mxGeometry x="417" y="600" width="100" height="40" as="geometry" />
        </mxCell>
        <mxCell id="NP63c2qwMmVNeZMk7sTa-388" style="rounded=0;orthogonalLoop=1;jettySize=auto;html=1;exitX=1;exitY=0.5;exitDx=0;exitDy=0;entryX=0;entryY=0.5;entryDx=0;entryDy=0;endArrow=none;endFill=0;" edge="1" parent="1" source="NP63c2qwMmVNeZMk7sTa-381" target="NP63c2qwMmVNeZMk7sTa-377">
          <mxGeometry relative="1" as="geometry" />
        </mxCell>
        <mxCell id="NP63c2qwMmVNeZMk7sTa-381" value="ID" style="ellipse;whiteSpace=wrap;html=1;align=center;fontStyle=4;" vertex="1" parent="1">
          <mxGeometry x="325" y="600" width="55" height="40" as="geometry" />
        </mxCell>
        <mxCell id="NP63c2qwMmVNeZMk7sTa-391" style="rounded=0;orthogonalLoop=1;jettySize=auto;html=1;exitX=0;exitY=0;exitDx=0;exitDy=0;entryX=1;entryY=1;entryDx=0;entryDy=0;endArrow=none;endFill=0;" edge="1" parent="1" source="NP63c2qwMmVNeZMk7sTa-382" target="NP63c2qwMmVNeZMk7sTa-377">
          <mxGeometry relative="1" as="geometry" />
        </mxCell>
        <mxCell id="NP63c2qwMmVNeZMk7sTa-382" value="address" style="ellipse;whiteSpace=wrap;html=1;align=center;" vertex="1" parent="1">
          <mxGeometry x="520" y="650" width="60" height="40" as="geometry" />
        </mxCell>
        <mxCell id="NP63c2qwMmVNeZMk7sTa-387" style="rounded=0;orthogonalLoop=1;jettySize=auto;html=1;exitX=1;exitY=1;exitDx=0;exitDy=0;entryX=0;entryY=0;entryDx=0;entryDy=0;endArrow=none;endFill=0;" edge="1" parent="1" source="NP63c2qwMmVNeZMk7sTa-383" target="NP63c2qwMmVNeZMk7sTa-377">
          <mxGeometry relative="1" as="geometry" />
        </mxCell>
        <mxCell id="NP63c2qwMmVNeZMk7sTa-383" value="name" style="ellipse;whiteSpace=wrap;html=1;align=center;" vertex="1" parent="1">
          <mxGeometry x="357" y="550" width="60" height="40" as="geometry" />
        </mxCell>
        <mxCell id="NP63c2qwMmVNeZMk7sTa-389" style="rounded=0;orthogonalLoop=1;jettySize=auto;html=1;exitX=0;exitY=0.5;exitDx=0;exitDy=0;endArrow=none;endFill=0;" edge="1" parent="1" source="NP63c2qwMmVNeZMk7sTa-384" target="NP63c2qwMmVNeZMk7sTa-377">
          <mxGeometry relative="1" as="geometry" />
        </mxCell>
        <mxCell id="NP63c2qwMmVNeZMk7sTa-384" value="numbers" style="ellipse;whiteSpace=wrap;html=1;align=center;" vertex="1" parent="1">
          <mxGeometry x="560" y="600" width="60" height="40" as="geometry" />
        </mxCell>
        <mxCell id="NP63c2qwMmVNeZMk7sTa-385" value="working&lt;br&gt;hours" style="ellipse;whiteSpace=wrap;html=1;align=center;" vertex="1" parent="1">
          <mxGeometry x="520" y="550" width="60" height="40" as="geometry" />
        </mxCell>
        <mxCell id="NP63c2qwMmVNeZMk7sTa-390" style="rounded=0;orthogonalLoop=1;jettySize=auto;html=1;exitX=0;exitY=1;exitDx=0;exitDy=0;entryX=0.897;entryY=-0.008;entryDx=0;entryDy=0;entryPerimeter=0;endArrow=none;endFill=0;" edge="1" parent="1" source="NP63c2qwMmVNeZMk7sTa-385" target="NP63c2qwMmVNeZMk7sTa-377">
          <mxGeometry relative="1" as="geometry" />
        </mxCell>
        <mxCell id="NP63c2qwMmVNeZMk7sTa-393" value="Employee" style="whiteSpace=wrap;html=1;align=center;" vertex="1" parent="1">
          <mxGeometry x="247" y="780" width="100" height="40" as="geometry" />
        </mxCell>
        <mxCell id="NP63c2qwMmVNeZMk7sTa-406" style="rounded=0;orthogonalLoop=1;jettySize=auto;html=1;exitX=0;exitY=0.5;exitDx=0;exitDy=0;endArrow=none;endFill=0;" edge="1" parent="1" source="NP63c2qwMmVNeZMk7sTa-397" target="NP63c2qwMmVNeZMk7sTa-393">
          <mxGeometry relative="1" as="geometry" />
        </mxCell>
        <mxCell id="NP63c2qwMmVNeZMk7sTa-397" value="first name" style="ellipse;whiteSpace=wrap;html=1;align=center;" vertex="1" parent="1">
          <mxGeometry x="394" y="775" width="57" height="30" as="geometry" />
        </mxCell>
        <mxCell id="NP63c2qwMmVNeZMk7sTa-405" style="rounded=0;orthogonalLoop=1;jettySize=auto;html=1;exitX=0;exitY=0;exitDx=0;exitDy=0;entryX=1;entryY=1;entryDx=0;entryDy=0;endArrow=none;endFill=0;" edge="1" parent="1" source="NP63c2qwMmVNeZMk7sTa-398" target="NP63c2qwMmVNeZMk7sTa-393">
          <mxGeometry relative="1" as="geometry" />
        </mxCell>
        <mxCell id="NP63c2qwMmVNeZMk7sTa-398" value="last name" style="ellipse;whiteSpace=wrap;html=1;align=center;" vertex="1" parent="1">
          <mxGeometry x="365" y="830" width="52" height="35" as="geometry" />
        </mxCell>
        <mxCell id="NP63c2qwMmVNeZMk7sTa-407" style="rounded=0;orthogonalLoop=1;jettySize=auto;html=1;exitX=0.5;exitY=1;exitDx=0;exitDy=0;endArrow=none;endFill=0;" edge="1" parent="1" source="NP63c2qwMmVNeZMk7sTa-399" target="NP63c2qwMmVNeZMk7sTa-393">
          <mxGeometry relative="1" as="geometry" />
        </mxCell>
        <mxCell id="NP63c2qwMmVNeZMk7sTa-399" value="address" style="ellipse;whiteSpace=wrap;html=1;align=center;" vertex="1" parent="1">
          <mxGeometry x="237" y="710" width="50" height="30" as="geometry" />
        </mxCell>
        <mxCell id="NP63c2qwMmVNeZMk7sTa-410" style="rounded=0;orthogonalLoop=1;jettySize=auto;html=1;exitX=1;exitY=0;exitDx=0;exitDy=0;endArrow=none;endFill=0;" edge="1" parent="1" source="NP63c2qwMmVNeZMk7sTa-400" target="NP63c2qwMmVNeZMk7sTa-393">
          <mxGeometry relative="1" as="geometry" />
        </mxCell>
        <mxCell id="NP63c2qwMmVNeZMk7sTa-400" value="gender" style="ellipse;whiteSpace=wrap;html=1;align=center;" vertex="1" parent="1">
          <mxGeometry x="180" y="835" width="57" height="30" as="geometry" />
        </mxCell>
        <mxCell id="NP63c2qwMmVNeZMk7sTa-409" style="rounded=0;orthogonalLoop=1;jettySize=auto;html=1;exitX=1;exitY=0.5;exitDx=0;exitDy=0;endArrow=none;endFill=0;" edge="1" parent="1" source="NP63c2qwMmVNeZMk7sTa-401" target="NP63c2qwMmVNeZMk7sTa-393">
          <mxGeometry relative="1" as="geometry" />
        </mxCell>
        <mxCell id="NP63c2qwMmVNeZMk7sTa-401" value="email&lt;br&gt;address" style="ellipse;whiteSpace=wrap;html=1;align=center;" vertex="1" parent="1">
          <mxGeometry x="140" y="785" width="67" height="35" as="geometry" />
        </mxCell>
        <mxCell id="NP63c2qwMmVNeZMk7sTa-402" value="phone&lt;br&gt;number" style="ellipse;whiteSpace=wrap;html=1;align=center;" vertex="1" parent="1">
          <mxGeometry x="150" y="720" width="57" height="40" as="geometry" />
        </mxCell>
        <mxCell id="NP63c2qwMmVNeZMk7sTa-408" style="rounded=0;orthogonalLoop=1;jettySize=auto;html=1;exitX=1;exitY=1;exitDx=0;exitDy=0;entryX=-0.005;entryY=0.148;entryDx=0;entryDy=0;entryPerimeter=0;endArrow=none;endFill=0;" edge="1" parent="1" source="NP63c2qwMmVNeZMk7sTa-402" target="NP63c2qwMmVNeZMk7sTa-393">
          <mxGeometry relative="1" as="geometry" />
        </mxCell>
        <mxCell id="NP63c2qwMmVNeZMk7sTa-413" style="rounded=0;orthogonalLoop=1;jettySize=auto;html=1;exitX=0;exitY=1;exitDx=0;exitDy=0;endArrow=none;endFill=0;" edge="1" parent="1" source="NP63c2qwMmVNeZMk7sTa-412" target="NP63c2qwMmVNeZMk7sTa-393">
          <mxGeometry relative="1" as="geometry" />
        </mxCell>
        <mxCell id="NP63c2qwMmVNeZMk7sTa-412" value="&lt;font style=&quot;font-size: 9px;&quot;&gt;employee &lt;br&gt;number&lt;/font&gt;" style="ellipse;whiteSpace=wrap;html=1;align=center;fontStyle=4;" vertex="1" parent="1">
          <mxGeometry x="380" y="720" width="60" height="30" as="geometry" />
        </mxCell>
      </root>
    </mxGraphModel>
  </diagram>
</mxfile>
